<?xml version="1.0" encoding="utf-8"?>
<!-- Generator: Adobe Illustrator 24.0.1, SVG Export Plug-In . SVG Version: 6.00 Build 0)  -->
<svg version="1.1" id="Layer_1" xmlns="http://www.w3.org/2000/svg" xmlns:xlink="http://www.w3.org/1999/xlink" x="0px" y="0px"
	 viewBox="0 0 270 480" style="enable-background:new 0 0 270 480;" xml:space="preserve">
<style type="text/css">
	.st0{fill:#999999;}
	.st1{fill:#999999;stroke:#999999;stroke-width:4;stroke-miterlimit:10;}
</style>
<title>seamsq12-recre</title>
<path class="st0" d="M0.1,282.7l-42.9-42.9L-0.1,197l42.9,42.9L0.1,282.7z M-37.9,239.6c12.7,12.7,25.4,25.4,37.9,37.9
	c12.6-12.6,25.3-25.3,37.8-37.8l-37.9-37.9L-37.9,239.6z"/>
<path class="st1" d="M26.8,240L0.1,266.7l-26.8-26.9l26.7-26.8L26.8,240z M0.1,215.5l-24.4,24.4c8,8,16.2,16.2,24.2,24.2l24.4-24.4
	C16.3,231.7,8.1,223.4,0.1,215.5L0.1,215.5z"/>
<path class="st0" d="M270.1,282.7l-42.9-42.9l42.8-42.8l42.9,42.9L270.1,282.7z M232.1,239.6c12.7,12.7,25.4,25.4,37.9,37.9
	c12.6-12.6,25.3-25.3,37.8-37.8l-37.9-37.9L232.1,239.6z"/>
<path class="st1" d="M296.8,240l-26.8,26.8l-26.8-26.9l26.7-26.8L296.8,240z M270.1,215.5l-24.4,24.4c8,8,16.2,16.2,24.2,24.2
	l24.4-24.4C286.3,231.7,278.1,223.4,270.1,215.5L270.1,215.5z"/>
<path class="st0" d="M30.3,510.3l-60.7,0c0-20.1,0-40.5,0-60.5l60.7,0C30.3,469.7,30.3,490.1,30.3,510.3z M-27,506.6l53.6,0
	c0-17.8,0-35.8,0-53.5l-53.6,0C-27,470.9-27,488.9-27,506.6L-27,506.6z"/>
<path class="st1" d="M19,461.1c0,12.6,0,25.3,0,37.8l-38,0c0-12.6,0-25.3,0-37.8L19,461.1z M-17.2,462.7c0,11.4,0,23.1,0,34.6
	c11.3,0,23,0,34.2,0c0-11.5,0-23.2,0-34.6L-17.2,462.7z"/>
<path class="st0" d="M300.4,510.2l-60.7,0c0-20.1,0-40.5,0-60.5l60.7,0C300.4,469.6,300.4,490,300.4,510.2z M243,506.5l53.6,0
	c0-17.8,0-35.8,0-53.5l-53.6,0C243,470.8,243,488.8,243,506.5L243,506.5z"/>
<path class="st1" d="M289,461c0,12.6,0,25.3,0,37.8l-38,0c0-12.6,0-25.3,0-37.8L289,461z M252.9,462.6c0,11.4,0,23.1,0,34.6
	c11.3,0,23,0,34.2,0c0-11.5,0-23.2,0-34.6L252.9,462.6z"/>
<path class="st0" d="M30.4,30.2l-60.7,0c0-20.1,0-40.5,0-60.5l60.7,0C30.4-10.4,30.4,10,30.4,30.2z M-26.9,26.5l53.6,0
	c0-17.8,0-35.8,0-53.5l-53.6,0C-26.9-9.2-26.9,8.8-26.9,26.5z"/>
<path class="st1" d="M19.1-19c0,12.6,0,25.3,0,37.8l-38,0c0-12.6,0-25.3,0-37.8L19.1-19z M-17.1-17.4c0,11.4,0,23.1,0,34.6
	c11.3,0,23,0,34.2,0c0-11.5,0-23.2,0-34.6L-17.1-17.4z"/>
<path class="st0" d="M300.5,30.1l-60.7,0c0-20.1,0-40.5,0-60.5l60.7,0C300.5-10.5,300.5,9.9,300.5,30.1z M243.2,26.4l53.6,0
	c0-17.8,0-35.8,0-53.5l-53.6,0C243.2-9.3,243.2,8.7,243.2,26.4L243.2,26.4z"/>
<path class="st1" d="M289.2-19.1c0,12.6,0,25.3,0,37.8l-38,0c0-12.6,0-25.3,0-37.8L289.2-19.1z M253-17.5c0,11.4,0,23.1,0,34.6
	c11.3,0,23,0,34.2,0c0-11.5,0-23.2,0-34.6L253-17.5z"/>
</svg>
