<svg xmlns="http://www.w3.org/2000/svg" width="42.67" height="171.4" viewBox="0 0 42.67 171.4"><defs><style>.cls-1{fill:#231f20;}</style></defs><title>Asset 3</title><g id="Layer_2" data-name="Layer 2"><g id="Layer_2-2" data-name="Layer 2"><path class="cls-1" d="M42,49.81a18.59,18.59,0,0,0-3.09-4.94c-2.29-2.82-4.88-5.35-7.19-8.15-5.46-6.62-7.5-15.38-9-23.92a91.62,91.62,0,0,1-1.16-9.34c0-.28-.16-3.46-.16-3.46s-.14,3.18-.16,3.46C21,6.6,20.57,9.71,20,12.8c-1.49,8.55-3.54,17.31-9,23.93-2.32,2.81-4.9,5.34-7.2,8.16a18.67,18.67,0,0,0-3.1,5,9.05,9.05,0,0,0-.4,5.85c1.12,3.62,4.57,5.17,7.59,6.43,3.52,1.47,7.08,3.2,9.76,6.15a4.82,4.82,0,0,1,1.39,2.58,7.6,7.6,0,0,1-.4,3.1,5,5,0,0,1-.61,1.32c-.39.53-.91,1-1.34,1.48a12,12,0,0,0-2.3,3.31,8.7,8.7,0,0,0-.5,3.69,14.55,14.55,0,0,0,.3,2c.92,3.86,3.3,7.13,4.18,11a54.51,54.51,0,0,1,.88,12.18c-.4,47.51-1.55,60.14-1.55,60.14A2.23,2.23,0,0,0,20,171.4h2.77A2.23,2.23,0,0,0,25,169s-1.08-12.73-1.63-60.14a53.93,53.93,0,0,1,.89-12.18c.89-3.87,3.27-7.14,4.19-11,.57-2.37.52-5.16-1-7.17-.46-.6-.93-1.19-1.43-1.77s-1-1-1.41-1.58a6.63,6.63,0,0,1-.93-3.06,5.65,5.65,0,0,1,0-1.3A4.85,4.85,0,0,1,25,68.27c2.68-3,6.24-4.69,9.76-6.17,3-1.26,6.48-2.81,7.61-6.44A9.05,9.05,0,0,0,42,49.81ZM9.35,59.22c-7.09,0-7.08-11,0-11S16.42,59.22,9.35,59.22Zm12,28.72c-4.51,0-4.5-7,0-7S25.89,87.94,21.38,87.94ZM33.19,59.22c-7.09,0-7.07-11,0-11S40.27,59.22,33.19,59.22Z"/></g></g></svg>