<svg xmlns="http://www.w3.org/2000/svg" width="22.51" height="233.71" viewBox="0 0 22.51 233.71"><defs><style>.cls-1{fill:#231f20;}</style></defs><title>Asset 1</title><g id="Layer_2" data-name="Layer 2"><g id="Layer_2-2" data-name="Layer 2"><path class="cls-1" d="M10.36,233.71h1.79c.82,0,1.48-1.25,1.43-2.73-.41-11.48-1.83-49.71-1.16-138.1a39.81,39.81,0,0,1,.51-7.59c.5-3.76,1.87-6.93,2.4-10.68a13.54,13.54,0,0,0-.62-7,25.45,25.45,0,0,0-1.47-2.32,5,5,0,0,1-.06-5.33,15.44,15.44,0,0,1,5.15-5.4,8.19,8.19,0,0,0,4-5.66,12.84,12.84,0,0,0-.21-5.13,20.58,20.58,0,0,0-1.63-4.34c-1.21-2.48-2.58-4.7-3.8-7.16-2.88-5.81-4-13.5-4.74-21-.29-2.71-.5-5.45-.62-8.2,0-.25-.09-3-.09-3s-.07,2.79-.08,3c-.12,2.75-.33,5.49-.62,8.2-.78,7.49-1.86,15.18-4.74,21C4.59,34.69,3.22,36.91,2,39.39A20.58,20.58,0,0,0,.38,43.73a12.84,12.84,0,0,0-.21,5.13,8.19,8.19,0,0,0,4,5.66,15.44,15.44,0,0,1,5.15,5.4,5,5,0,0,1-.06,5.33A25.45,25.45,0,0,0,7.8,67.57a13.54,13.54,0,0,0-.62,7c.53,3.75,1.9,6.92,2.4,10.68a39.81,39.81,0,0,1,.51,7.59c.67,88.39-.75,126.62-1.16,138.1C8.88,232.46,9.54,233.71,10.36,233.71ZM8.11,42.21c4.1-4.1,10.45,2.27,6.36,6.37S4,46.31,8.11,42.21Z"/></g></g></svg>