<svg xmlns="http://www.w3.org/2000/svg" width="35.03" height="202.45" viewBox="0 0 35.03 202.45"><defs><style>.cls-1{fill:#231f20;}</style></defs><title>Asset 2</title><g id="Layer_2" data-name="Layer 2"><g id="Layer_2-2" data-name="Layer 2"><path class="cls-1" d="M34.44,37.88a14,14,0,0,0-2.54-3.76C30,32,27.89,30.05,26,27.92c-4.48-5-6.16-11.69-7.38-18.19a67.65,67.65,0,0,1-1-7.1c0-.21-.13-2.63-.13-2.63s-.12,2.42-.14,2.63a65.08,65.08,0,0,1-.95,7.1C15.21,16.23,13.52,22.89,9,27.92c-1.9,2.13-4,4.06-5.91,6.2A14.23,14.23,0,0,0,.59,37.88a6.35,6.35,0,0,0-.32,4.45c.92,2.76,3.75,3.93,6.23,4.9a21.78,21.78,0,0,1,8,4.68,3.6,3.6,0,0,1,1.15,2,3.3,3.3,0,0,1-1.24,2.65,25.89,25.89,0,0,0-2.28,2,6.85,6.85,0,0,0-1,6.09c.82,3.25,2.94,6,3.74,9.25s.74,7,.79,10.25c1,76.57-1.18,106-1.81,116a2.23,2.23,0,0,0,2.23,2.36H18.9a2.23,2.23,0,0,0,2.23-2.36c-.63-9.94-2.85-39.39-1.8-116,0-3.29,0-7,.79-10.25s2.91-6,3.73-9.25a6.85,6.85,0,0,0-1-6.09,25.89,25.89,0,0,0-2.28-2,3.26,3.26,0,0,1-1.23-2.65,3.52,3.52,0,0,1,1.14-2,21.78,21.78,0,0,1,8-4.68c2.48-1,5.32-2.14,6.24-4.9A6.35,6.35,0,0,0,34.44,37.88ZM7.38,44.57c-5.16,0-5.15-8,0-8S12.52,44.57,7.38,44.57Zm20.12,0c-5.16,0-5.15-8,0-8S32.64,44.52,27.5,44.52Z"/></g></g></svg>