<svg xmlns="http://www.w3.org/2000/svg" width="270" height="480" viewBox="0 0 270 480"><defs><style>.a,.b{fill:#999;}.b{stroke:#999;stroke-miterlimit:10;stroke-width:4px;}</style></defs><title>seamsq12-recre</title><path class="a" d="M132.56329,448.87573,34.4771,350.80005C66.92,318.33783,99.858,285.38022,132.29976,252.9192l98.11247,98.1151C198.09526,383.34879,165.137,416.30453,132.56329,448.87573ZM45.80847,350.37027c28.96549,28.96783,58.1078,58.11255,86.68681,86.69391,28.69326-28.69577,57.84081-57.84592,86.39873-86.40634-28.70374-28.70533-57.85091-57.8541-86.69168-86.69641C103.577,292.59177,74.52281,321.65094,45.80847,350.37027Z"/><path class="a" d="M204.11531,351.19577l-71.52123,71.53067c-23.94507-23.95224-48.05644-48.07083-71.78229-71.8038,23.77843-23.80881,47.84647-47.90756,71.47791-71.56919Zm-71.37937-65.44928c-21.62345,21.63141-43.66934,43.68539-65.30925,65.33325,21.42051,21.43,43.4042,43.42343,64.63654,64.66516,21.74178-21.74215,43.81734-43.81811,65.35724-65.35839C175.97436,328.95517,153.9906,306.98651,132.73594,285.74649Z"/><path class="a" d="M204.37371,174.18528l-138.70738.00745c-.01367-45.89486-.02752-92.49011-.04117-138.38327l138.75384.00183C204.37725,81.51263,204.37547,128.12089,204.37371,174.18528Zm-130.9988-8.30894c40.965.00165,82.18019.00335,122.59868.005-.00178-40.58017-.00362-81.80287-.0054-122.19164-40.59433-.00111-81.81579-.00224-122.6039-.00332C73.36781,84.17228,73.37138,125.2646,73.37491,165.87634Z"/><path class="a" d="M185.89845,54.5202c.00223,33.55894.00447,67.51617.00669,101.153L84.37444,155.658c-.02148-33.64926-.04321-67.70833-.06455-101.14957ZM89.146,58.71342c.00562,30.58581.01135,61.76913.017,92.3782,30.29991.00672,61.39641.01359,91.43011.02022-.00027-30.74778-.00056-61.96762-.00084-92.42991Z"/><path class="a" d="M.05189,282.72674l-42.9106-42.906L-.0634,197l42.9221,42.92325Zm-37.95337-43.094c12.67178,12.6728,25.42091,25.423,37.92362,37.92672,12.55268-12.55378,25.30411-25.30635,37.79759-37.80092L-.106,201.8307Z"/><path class="b" d="M26.80771,239.98042.05661,266.73505l-26.84874-26.85679,26.73489-26.769Zm-26.698-24.48L-24.318,239.937c8.01192,8.01548,16.23448,16.24168,24.176,24.18673l24.44558-24.446C16.28214,231.66177,8.05955,223.44482.10967,215.50041Z"/><path class="a" d="M270.05189,282.72674l-42.9106-42.906L269.9366,197l42.9221,42.92325Zm-37.95337-43.094c12.67178,12.6728,25.42091,25.423,37.92362,37.92672,12.55268-12.55378,25.30411-25.30635,37.79759-37.80092L269.894,201.8307Z"/><path class="b" d="M296.80771,239.98042l-26.7511,26.75463-26.84874-26.85679,26.73489-26.769Zm-26.698-24.48L245.682,239.937c8.01192,8.01548,16.23448,16.24168,24.176,24.18673l24.44558-24.446C286.28214,231.66177,278.05955,223.44482,270.10967,215.50041Z"/><path class="a" d="M30.30481,510.27229l-60.6815.00325c-.006-20.078-.012-40.46243-.018-60.5397l60.70182.00081C30.30636,469.73,30.30558,490.12011,30.30481,510.27229Zm-57.30916-3.635,53.63429.0022c-.00078-17.75295-.00158-35.787-.00236-53.45622l-53.63657-.00146C-27.00745,470.89353-27.0059,488.87054-27.00435,506.6373Z"/><path class="b" d="M18.99782,461.12686c.00083,12.55206.00166,25.25309.00249,37.83427l-37.97554-.00569c-.008-12.58584-.01616-25.325-.02414-37.833Zm-36.18834,1.56839c.0021,11.44.00424,23.10352.00634,34.55223,11.33308.00252,22.96411.00509,34.19762.00757-.0001-11.5006-.0002-23.17776-.0003-34.57157Z"/><path class="a" d="M300.35638,510.17726l-60.68151.00325c-.006-20.078-.012-40.46243-.018-60.5397l60.70183.00081C300.35793,469.635,300.35715,490.02508,300.35638,510.17726Zm-57.30916-3.635,53.63429.0022c-.00078-17.75295-.00159-35.787-.00236-53.45622l-53.63657-.00146C243.04412,470.7985,243.04567,488.77551,243.04722,506.54227Z"/><path class="b" d="M289.04938,461.03183c.00084,12.55206.00167,25.25309.0025,37.83427l-37.97555-.00569c-.008-12.58584-.01615-25.325-.02413-37.833ZM252.861,462.60022c.00211,11.44.00425,23.10352.00635,34.55223,11.33308.00252,22.96411.00509,34.19762.00757-.0001-11.5006-.00021-23.17776-.00031-34.57157Z"/><path class="a" d="M30.43032,30.17157l-60.6815.00325c-.006-20.078-.012-40.46243-.018-60.5397l60.70182.00081C30.43187-10.37072,30.43109,10.01939,30.43032,30.17157Zm-57.30916-3.635,53.63429.0022c-.00078-17.75295-.00158-35.787-.00236-53.45622l-53.63657-.00146C-26.88194-9.20719-26.88038,8.76982-26.87884,26.53658Z"/><path class="b" d="M19.12333-18.97386c.00083,12.55206.00166,25.25309.0025,37.83427l-37.97555-.00569c-.008-12.58584-.01616-25.325-.02414-37.833ZM-17.065-17.40547c.0021,11.44.00424,23.10352.00634,34.55223,11.33308.00252,22.96411.00509,34.19762.00757-.0001-11.5006-.0002-23.17776-.0003-34.57157Z"/><path class="a" d="M300.48189,30.07654l-60.6815.00325c-.006-20.078-.012-40.46243-.018-60.53971l60.70182.00082C300.48344-10.46575,300.48266,9.92436,300.48189,30.07654Zm-57.30916-3.635,53.63429.0022c-.00078-17.753-.00158-35.787-.00236-53.45622l-53.63657-.00146C243.16963-9.30222,243.17118,8.67479,243.17273,26.44155Z"/><path class="b" d="M289.1749-19.06889c.00083,12.55206.00166,25.25309.00249,37.83426l-37.97554-.00568c-.008-12.58584-.01616-25.325-.02414-37.833ZM252.98655-17.5005c.00211,11.44.00425,23.10352.00635,34.55223,11.33308.00252,22.96411.00509,34.19762.00757-.0001-11.5006-.0002-23.17776-.0003-34.57158Z"/></svg>